<svg xmlns="http://www.w3.org/2000/svg" width="100" height="100" viewBox="0 0 100 100">
  <g id="Grupo_1113588" data-name="Grupo 1113588" transform="translate(-200 -527)">
    <rect id="Rectángulo_403077" data-name="Rectángulo 403077" width="100" height="100" transform="translate(200 527)" fill="#95dbb3"/>
    <g id="Grupo_1113587" data-name="Grupo 1113587" transform="translate(214 541)">
      <g id="Grupo_1113585" data-name="Grupo 1113585" transform="translate(1.055 1.055)">
        <path id="Trazado_917245" data-name="Trazado 917245" d="M75.3,77.25H11.313A2.812,2.812,0,0,1,8.5,74.438V10.453a2.865,2.865,0,0,1,1.968-2.864,2.813,2.813,0,0,1,.7-.089H22.579l1.059.281L24.7,7.5h9.115l1.1.281L35.971,7.5H50.679l1.037.281L52.8,7.5H61.96l.958.281L64.066,7.5H76.844A1.406,1.406,0,0,1,78.25,8.906V21.7l-.281,1.221.281.9v9.135L77.969,34l.281,1.035v14.8l-.281,1.083.281,1.005v9.156l-.141,1.135.141.974V74.578a2.813,2.813,0,0,1-.089.7A2.865,2.865,0,0,1,75.3,77.25Z" transform="translate(-8.359 -7.5)" fill="#b3e59f"/>
        <path id="Trazado_917246" data-name="Trazado 917246" d="M9.609,74.439V63.753L9.469,62.7l.141-1.062V52.5l-.141-1.029.141-1.082V35.616l-.141-.969.141-1.128V24.36l-.141-1.038.141-1.044V8.156A2.811,2.811,0,0,0,7.5,10.876V22.265l.141,1.056L7.5,24.366v9.153l.141,1.053L7.5,35.625V50.4l.141,1.047L7.5,52.5v9.132L7.641,62.7,7.5,63.75V75.142a2.812,2.812,0,0,0,2.813,2.813H21.7l1.032-.141,1.073.141h9.151l1.014-.141,1.091.141H49.828l1.055-.141,1.055.141h9.141l1.055-.141,1.055.141H74.578a2.811,2.811,0,0,0,2.72-2.109H63.207l-1.074.141-1.1-.141H51.929l-1.046.141-1.046-.141H35.067l-1.082.141-1.032-.141H23.811l-1.053.141-1.047-.141h-10.7a1.406,1.406,0,0,1-1.406-1.406Z" transform="translate(-7.5 -8.064)" fill="#95d6a4"/>
        <g id="Grupo_1113577" data-name="Grupo 1113577" transform="translate(20.18 13.148)">
          <path id="Trazado_917247" data-name="Trazado 917247" d="M271.141,105.078,271,103.109V101.7a.7.7,0,0,1,.7-.7h2.813a.7.7,0,0,1,.7.7v1.406l-.141,1.969Z" transform="translate(-254.125 -101)" fill="#ffb65f"/>
          <path id="Trazado_917248" data-name="Trazado 917248" d="M331.141,105.078,331,103.109V101.7a.7.7,0,0,1,.7-.7h2.813a.7.7,0,0,1,.7.7v1.406l-.141,1.969Z" transform="translate(-305.688 -101)" fill="#ffb65f"/>
          <path id="Trazado_917249" data-name="Trazado 917249" d="M211.141,105.078,211,103.109V101.7a.7.7,0,0,1,.7-.7h2.813a.7.7,0,0,1,.7.7v1.406l-.141,1.969Z" transform="translate(-202.563 -101)" fill="#ffb65f"/>
          <path id="Trazado_917250" data-name="Trazado 917250" d="M151.141,105.078,151,103.109V101.7a.7.7,0,0,1,.7-.7h2.813a.7.7,0,0,1,.7.7v1.406l-.141,1.969Z" transform="translate(-151 -101)" fill="#ffb65f"/>
        </g>
        <g id="Grupo_1113578" data-name="Grupo 1113578" transform="translate(20.18 15.258)">
          <path id="Trazado_917251" data-name="Trazado 917251" d="M271,116h4.219v2.391H271Z" transform="translate(-254.125 -116)" fill="#ff9350"/>
          <path id="Trazado_917252" data-name="Trazado 917252" d="M331,116h4.219v2.391H331Z" transform="translate(-305.688 -116)" fill="#ff9350"/>
          <path id="Trazado_917253" data-name="Trazado 917253" d="M211,116h4.219v2.391H211Z" transform="translate(-202.563 -116)" fill="#ff9350"/>
          <path id="Trazado_917254" data-name="Trazado 917254" d="M151,116h4.219v2.391H151Z" transform="translate(-151 -116)" fill="#ff9350"/>
        </g>
        <g id="Grupo_1113579" data-name="Grupo 1113579" transform="translate(20.18 52.664)">
          <path id="Trazado_917255" data-name="Trazado 917255" d="M215.078,382l.141,2.044v1.331a.7.7,0,0,1-.7.7H211.7a.7.7,0,0,1-.7-.7v-1.406l.141-1.969Z" transform="translate(-202.563 -382)" fill="#ffb65f"/>
          <path id="Trazado_917256" data-name="Trazado 917256" d="M155.078,382l.141,1.969v1.406a.7.7,0,0,1-.7.7H151.7a.7.7,0,0,1-.7-.7v-1.331l.141-2.044Z" transform="translate(-151 -382)" fill="#ffb65f"/>
          <path id="Trazado_917257" data-name="Trazado 917257" d="M275.078,382l.141,2v1.379a.7.7,0,0,1-.7.7H271.7a.7.7,0,0,1-.7-.7v-1.406l.141-1.969Z" transform="translate(-254.125 -382)" fill="#ffb65f"/>
          <path id="Trazado_917258" data-name="Trazado 917258" d="M335.078,382l.141,2v1.379a.7.7,0,0,1-.7.7H331.7a.7.7,0,0,1-.7-.7v-1.406l.141-1.969Z" transform="translate(-305.688 -382)" fill="#ffb65f"/>
        </g>
        <g id="Grupo_1113580" data-name="Grupo 1113580" transform="translate(20.18 52.242)">
          <path id="Trazado_917259" data-name="Trazado 917259" d="M211,379h4.219v2.391H211Z" transform="translate(-202.563 -379)" fill="#ff9350"/>
          <path id="Trazado_917260" data-name="Trazado 917260" d="M151,379h4.219v2.391H151Z" transform="translate(-151 -379)" fill="#ff9350"/>
          <path id="Trazado_917261" data-name="Trazado 917261" d="M271,379h4.219v2.391H271Z" transform="translate(-254.125 -379)" fill="#ff9350"/>
          <path id="Trazado_917262" data-name="Trazado 917262" d="M331,379h4.219v2.391H331Z" transform="translate(-305.688 -379)" fill="#ff9350"/>
        </g>
        <g id="Grupo_1113581" data-name="Grupo 1113581" transform="translate(52.664 20.18)">
          <path id="Trazado_917263" data-name="Trazado 917263" d="M382,271.141l1.99-.141h1.385a.7.7,0,0,1,.7.7v2.813a.7.7,0,0,1-.7.7h-1.406L382,275.078Z" transform="translate(-382 -254.125)" fill="#ffb65f"/>
          <path id="Trazado_917264" data-name="Trazado 917264" d="M382,331.141l1.969-.141h1.406a.7.7,0,0,1,.7.7v2.813a.7.7,0,0,1-.7.7h-1.406L382,335.078Z" transform="translate(-382 -305.688)" fill="#ffb65f"/>
          <path id="Trazado_917265" data-name="Trazado 917265" d="M382,211.141l1.99-.141h1.385a.7.7,0,0,1,.7.7v2.813a.7.7,0,0,1-.7.7h-1.406L382,215.078Z" transform="translate(-382 -202.563)" fill="#ffb65f"/>
          <path id="Trazado_917266" data-name="Trazado 917266" d="M382,151.141l1.969-.141h1.406a.7.7,0,0,1,.7.7v2.813a.7.7,0,0,1-.7.7h-1.406L382,155.078Z" transform="translate(-382 -151)" fill="#ffb65f"/>
        </g>
        <g id="Grupo_1113582" data-name="Grupo 1113582" transform="translate(52.242 20.18)">
          <path id="Trazado_917267" data-name="Trazado 917267" d="M379,271h2.391v4.219H379Z" transform="translate(-379 -254.125)" fill="#ff9350"/>
          <path id="Trazado_917268" data-name="Trazado 917268" d="M379,331h2.391v4.219H379Z" transform="translate(-379 -305.688)" fill="#ff9350"/>
          <path id="Trazado_917269" data-name="Trazado 917269" d="M379,211h2.391v4.219H379Z" transform="translate(-379 -202.563)" fill="#ff9350"/>
          <path id="Trazado_917270" data-name="Trazado 917270" d="M379,151h2.391v4.219H379Z" transform="translate(-379 -151)" fill="#ff9350"/>
        </g>
        <g id="Grupo_1113583" data-name="Grupo 1113583" transform="translate(13.148 20.18)">
          <path id="Trazado_917271" data-name="Trazado 917271" d="M105.078,215.078l-1.969.141H101.7a.7.7,0,0,1-.7-.7V211.7a.7.7,0,0,1,.7-.7h1.406l1.969.141Z" transform="translate(-101 -202.563)" fill="#ffb65f"/>
          <path id="Trazado_917272" data-name="Trazado 917272" d="M104.938,154.938l-1.828.281H101.7a.7.7,0,0,1-.7-.7V151.7a.7.7,0,0,1,.7-.7h1.406l1.969.141Z" transform="translate(-101 -151)" fill="#ffb65f"/>
          <path id="Trazado_917273" data-name="Trazado 917273" d="M105.078,275.078l-1.969.141H101.7a.7.7,0,0,1-.7-.7V271.7a.7.7,0,0,1,.7-.7h1.355l2.02.141Z" transform="translate(-101 -254.125)" fill="#ffb65f"/>
          <path id="Trazado_917274" data-name="Trazado 917274" d="M105.078,335.078l-1.969.141H101.7a.7.7,0,0,1-.7-.7V331.7a.7.7,0,0,1,.7-.7h1.406l1.969.141Z" transform="translate(-101 -305.688)" fill="#ffb65f"/>
        </g>
        <g id="Grupo_1113584" data-name="Grupo 1113584" transform="translate(15.258 20.18)">
          <path id="Trazado_917275" data-name="Trazado 917275" d="M116,211h2.391v4.219H116Z" transform="translate(-116 -202.563)" fill="#ff9350"/>
          <path id="Trazado_917276" data-name="Trazado 917276" d="M116,151h2.391v4.219H116Z" transform="translate(-116 -151)" fill="#ff9350"/>
          <path id="Trazado_917277" data-name="Trazado 917277" d="M116,271h2.391v4.219H116Z" transform="translate(-116 -254.125)" fill="#ff9350"/>
          <path id="Trazado_917278" data-name="Trazado 917278" d="M116,331h2.391v4.219H116Z" transform="translate(-116 -305.688)" fill="#ff9350"/>
        </g>
        <path id="Trazado_917279" data-name="Trazado 917279" d="M165.469,166.016H133.406A1.406,1.406,0,0,1,132,164.609V132.547a1.406,1.406,0,0,1,1.406-1.406l1.266-.141h30.938a1.406,1.406,0,0,1,1.406,1.406v30.938l-.141,1.266A1.406,1.406,0,0,1,165.469,166.016Z" transform="translate(-114.492 -113.633)" fill="#8d9ca8"/>
        <path id="Trazado_917280" data-name="Trazado 917280" d="M134.234,163.344a.422.422,0,0,1-.422-.422V131h-1.406A1.406,1.406,0,0,0,131,132.406V164.75a1.406,1.406,0,0,0,1.406,1.406H164.75a1.406,1.406,0,0,0,1.406-1.406v-1.406Z" transform="translate(-113.633 -113.633)" fill="#7a8c98"/>
      </g>
      <g id="Grupo_1113586" data-name="Grupo 1113586">
        <path id="Trazado_917281" data-name="Trazado 917281" d="M224.4,218.5h-9.844a1.055,1.055,0,0,0,0,2.109H224.4a1.055,1.055,0,0,0,0-2.109Z" transform="translate(-183.477 -187.773)"/>
        <path id="Trazado_917282" data-name="Trazado 917282" d="M224.4,278.5h-9.844a1.055,1.055,0,0,0,0,2.109H224.4a1.055,1.055,0,0,0,0-2.109Z" transform="translate(-183.477 -239.336)"/>
        <path id="Trazado_917283" data-name="Trazado 917283" d="M236.977,250.609a1.055,1.055,0,0,0,0-2.109h-4.922a1.055,1.055,0,0,0,0,2.109Z" transform="translate(-198.516 -213.555)"/>
        <path id="Trazado_917284" data-name="Trazado 917284" d="M68.133,0H11.672a1.055,1.055,0,0,0,0,2.109h3.586v2.1a1.76,1.76,0,0,0,1.758,1.758h5.273V8.909H11.145A2.464,2.464,0,0,0,8.684,11.37V22.289H5.968V17.016A1.76,1.76,0,0,0,4.21,15.258h-2.1V3.867A1.76,1.76,0,0,1,3.867,2.109H6.75A1.055,1.055,0,0,0,6.75,0H3.867A3.872,3.872,0,0,0,0,3.867v56.32a1.055,1.055,0,0,0,2.109,0V56.742h2.1a1.76,1.76,0,0,0,1.758-1.758V49.711H8.684V60.63a2.464,2.464,0,0,0,2.461,2.461H22.289v2.941H17.016a1.76,1.76,0,0,0-1.758,1.758v2.1H3.867a1.76,1.76,0,0,1-1.758-1.758V65.109a1.055,1.055,0,0,0-2.109,0v3.023A3.871,3.871,0,0,0,3.867,72H68.133A3.871,3.871,0,0,0,72,68.133V3.867A3.871,3.871,0,0,0,68.133,0ZM66.384,47.6H58.852V47.25a1.76,1.76,0,0,0-1.758-1.758H54.633V43.383h2.461a1.76,1.76,0,0,0,1.758-1.758v-.352h6.2v2.461a1.76,1.76,0,0,0,1.758,1.758h3.085v9.141H68.142V49.359A1.76,1.76,0,0,0,66.384,47.6ZM49.359,68.142h5.273v1.749H45.492V66.806a1.76,1.76,0,0,0-1.758-1.758H41.273v-6.2h.352a1.76,1.76,0,0,0,1.758-1.758V54.633h2.109v2.461a1.76,1.76,0,0,0,1.758,1.758H47.6v7.532A1.76,1.76,0,0,0,49.359,68.142Zm-18.633-11.4V54.633h2.109v2.109ZM32.836,65.4V58.852h.352a1.76,1.76,0,0,0,1.758-1.758V54.633h2.109v2.461a1.76,1.76,0,0,0,1.758,1.758h.352V65.4a1.76,1.76,0,0,0,1.758,1.758h2.461v2.733H28.617V67.157h2.461A1.76,1.76,0,0,0,32.836,65.4Zm6.328-8.657V54.633h2.109v2.109Zm8.438,0V54.633h2.109v2.109ZM19.828,52.523a.352.352,0,0,1-.352-.352V19.828a.352.352,0,0,1,.352-.352H52.172a.352.352,0,0,1,.352.352V52.172a.352.352,0,0,1-.352.352Zm2.461,4.219V54.633H24.4v2.109Zm-4.922-7.031H15.258V47.6h2.109ZM14.906,37.055a1.76,1.76,0,0,0-1.758,1.758v.352H6.6a1.76,1.76,0,0,0-1.758,1.758v2.461H2.109V28.617H4.843v2.461A1.76,1.76,0,0,0,6.6,32.836h6.548v.352a1.76,1.76,0,0,0,1.758,1.758h2.461v2.109ZM17.367,24.4H15.258V22.289h2.109Zm0,8.438H15.258V30.727h2.109Zm-2.109,6.328h2.109v2.109H15.258ZM24.4,15.258v2.109H22.289V15.258Zm6.68-10.415H28.617V2.109H43.383V4.843H40.922A1.76,1.76,0,0,0,39.164,6.6v6.548h-.352a1.76,1.76,0,0,0-1.758,1.758v2.461H34.945V14.906a1.76,1.76,0,0,0-1.758-1.758h-.352V6.6a1.76,1.76,0,0,0-1.758-1.758ZM49.711,15.258v2.109H47.6V15.258ZM47.6,5.616v7.532H47.25a1.76,1.76,0,0,0-1.758,1.758v2.461H43.383V14.906a1.76,1.76,0,0,0-1.758-1.758h-.352v-6.2h2.461a1.76,1.76,0,0,0,1.758-1.758V2.109h9.141V3.858H49.359A1.76,1.76,0,0,0,47.6,5.616Zm-6.328,9.642v2.109H39.164V15.258Zm-8.437,0v2.109H30.727V15.258Zm24.258,11.25a1.76,1.76,0,0,0,1.758-1.758V24.4h7.532a1.76,1.76,0,0,0,1.758-1.758V17.367h1.749v9.141H66.806a1.76,1.76,0,0,0-1.758,1.758v2.461h-6.2v-.352a1.76,1.76,0,0,0-1.758-1.758H54.633V26.508ZM65.4,39.164H58.852v-.352a1.76,1.76,0,0,0-1.758-1.758H54.633V34.945h2.461a1.76,1.76,0,0,0,1.758-1.758v-.352H65.4a1.76,1.76,0,0,0,1.758-1.758V28.617h2.733V43.383H67.157V40.922A1.76,1.76,0,0,0,65.4,39.164ZM54.633,30.727h2.109v2.109H54.633Zm0,8.438h2.109v2.109H54.633ZM56.742,24.4H54.633V22.289h2.109ZM54.633,47.6h2.109v2.109H54.633ZM69.891,3.867V15.258h-2.1a1.76,1.76,0,0,0-1.758,1.758v5.273H63.316V19.125a1.055,1.055,0,0,0-2.109,0v3.164H58.852v-.352a1.76,1.76,0,0,0-1.758-1.758H54.633v-.352a2.464,2.464,0,0,0-2.461-2.461H51.82V14.906a1.76,1.76,0,0,0-1.758-1.758h-.352v-2.13H60.855a.352.352,0,0,1,.352.352V14.2a1.055,1.055,0,0,0,2.109,0V11.37a2.464,2.464,0,0,0-2.461-2.461H49.711V5.968h5.273A1.76,1.76,0,0,0,56.742,4.21v-2.1H68.133a1.76,1.76,0,0,1,1.758,1.758ZM17.367,3.858V2.109h9.141V5.194a1.76,1.76,0,0,0,1.758,1.758h2.461v6.2h-.352a1.76,1.76,0,0,0-1.758,1.758v2.461H26.508V14.906a1.76,1.76,0,0,0-1.758-1.758H24.4V5.616a1.76,1.76,0,0,0-1.758-1.758ZM10.793,11.37a.352.352,0,0,1,.352-.352H22.289v2.13h-.352a1.76,1.76,0,0,0-1.758,1.758v2.461h-.352a2.464,2.464,0,0,0-2.461,2.461v.352H14.906a1.76,1.76,0,0,0-1.758,1.758v.352H10.793Zm-6.935,6v5.273A1.76,1.76,0,0,0,5.616,24.4h7.532v.352a1.76,1.76,0,0,0,1.758,1.758h2.461v2.109H14.906a1.76,1.76,0,0,0-1.758,1.758v.352h-6.2V28.266a1.76,1.76,0,0,0-1.758-1.758H2.109V17.367ZM5.616,47.6a1.76,1.76,0,0,0-1.758,1.758v5.273H2.109V45.492H5.194a1.76,1.76,0,0,0,1.758-1.758V41.273h6.2v.352a1.76,1.76,0,0,0,1.758,1.758h2.461v2.109H14.906a1.76,1.76,0,0,0-1.758,1.758V47.6Zm5.529,13.38a.352.352,0,0,1-.352-.352V49.711h2.355v.352a1.76,1.76,0,0,0,1.758,1.758h2.461v.352a2.464,2.464,0,0,0,2.461,2.461h.352v2.461a1.76,1.76,0,0,0,1.758,1.758h.352v2.13Zm6.223,7.16h5.273A1.76,1.76,0,0,0,24.4,66.384V58.852h.352a1.76,1.76,0,0,0,1.758-1.758V54.633h2.109v2.461a1.76,1.76,0,0,0,1.758,1.758h.352v6.2H28.266a1.76,1.76,0,0,0-1.758,1.758v3.085H17.367Zm50.766,1.749H56.742v-2.1a1.76,1.76,0,0,0-1.758-1.758H49.711V63.091H53.3a1.055,1.055,0,0,0,0-2.109H49.711v-2.13h.352a1.76,1.76,0,0,0,1.758-1.758V54.633h.352a2.464,2.464,0,0,0,2.461-2.461V51.82h2.461a1.76,1.76,0,0,0,1.758-1.758v-.352h2.355V60.63a.352.352,0,0,1-.352.352H58.219a1.055,1.055,0,0,0,0,2.109h2.637a2.464,2.464,0,0,0,2.461-2.461V49.711h2.716v5.273a1.76,1.76,0,0,0,1.758,1.758h2.1V68.133a1.76,1.76,0,0,1-1.758,1.758Z"/>
      </g>
    </g>
  </g>
</svg>
